<mxfile host="app.diagrams.net" modified="2023-11-23T13:30:20.322Z" agent="Mozilla/5.0 (Windows NT 10.0; Win64; x64) AppleWebKit/537.36 (KHTML, like Gecko) Chrome/119.0.0.0 Safari/537.36" etag="ZDMLvcpqoSm1lb1vwrra" version="22.1.3" type="device">
  <diagram name="Страница — 1" id="GNdpn-3E9dpwhld-4zh5">
    <mxGraphModel dx="610" dy="332" grid="1" gridSize="10" guides="1" tooltips="1" connect="1" arrows="1" fold="1" page="0" pageScale="1" pageWidth="1169" pageHeight="827" background="#6f8395" math="0" shadow="0">
      <root>
        <mxCell id="0" />
        <mxCell id="1" parent="0" />
        <mxCell id="WUIFCC4ORFOG9mMlAvA7-11" style="edgeStyle=orthogonalEdgeStyle;rounded=0;orthogonalLoop=1;jettySize=auto;html=1;exitX=1;exitY=0.5;exitDx=0;exitDy=0;strokeColor=#23445D;" edge="1" parent="1" source="WUIFCC4ORFOG9mMlAvA7-2">
          <mxGeometry relative="1" as="geometry">
            <mxPoint x="590" y="284.96296296296293" as="targetPoint" />
          </mxGeometry>
        </mxCell>
        <mxCell id="WUIFCC4ORFOG9mMlAvA7-2" value="&lt;div style=&quot;text-align: center; font-size: 17px;&quot;&gt;&lt;span style=&quot;font-size: 17px; background-color: initial;&quot;&gt;UML&lt;/span&gt;&lt;/div&gt;&lt;font style=&quot;&quot;&gt;&amp;nbsp; в систему UML входит 17 диаграмм.&lt;br style=&quot;font-size: 17px;&quot;&gt;&lt;div style=&quot;font-size: 17px;&quot;&gt;&lt;span style=&quot;background-color: initial; font-size: 17px;&quot;&gt;3 типа:&lt;/span&gt;&lt;/div&gt;-поведенческие&lt;br style=&quot;font-size: 17px;&quot;&gt;-структурные&lt;br style=&quot;font-size: 17px;&quot;&gt;-диаграммы составной структуры&lt;br&gt;&lt;span style=&quot;font-size: 17px; background-color: initial;&quot;&gt;&lt;br&gt;1.Поведенческие:&lt;/span&gt;&lt;br&gt;&lt;ul style=&quot;&quot;&gt;&lt;li style=&quot;font-size: 17px;&quot;&gt;&lt;font style=&quot;font-size: 17px;&quot;&gt;use-case&lt;/font&gt;&lt;/li&gt;&lt;li style=&quot;&quot;&gt;&lt;font style=&quot;font-size: 17px;&quot;&gt;sequence&lt;/font&gt;&lt;font style=&quot;font-size: 14px;&quot;&gt;(описывает ход какого либо процесс, нет ветвлений)&lt;/font&gt;&lt;/li&gt;&lt;li style=&quot;&quot;&gt;&lt;font style=&quot;font-size: 17px;&quot;&gt;activity&lt;/font&gt;&lt;font style=&quot;font-size: 14px;&quot;&gt;(алгоритм действий; замена блок схем внутри диаграмм)&lt;/font&gt;&lt;/li&gt;&lt;li style=&quot;&quot;&gt;&lt;font style=&quot;font-size: 17px;&quot;&gt;communication&lt;/font&gt;&lt;font style=&quot;font-size: 14px;&quot;&gt;(как объекты системы общаются, упор на то кто общается и какие данные перетекают от узла к узлу)&lt;/font&gt;&lt;/li&gt;&lt;li style=&quot;font-size: 17px;&quot;&gt;&lt;font style=&quot;font-size: 17px;&quot;&gt;time&lt;/font&gt;&lt;/li&gt;&lt;li style=&quot;font-size: 17px;&quot;&gt;&lt;font style=&quot;font-size: 17px;&quot;&gt;cooperations&lt;/font&gt;&lt;/li&gt;&lt;li style=&quot;&quot;&gt;&lt;font style=&quot;font-size: 17px;&quot;&gt;state-chart&lt;/font&gt;&lt;font style=&quot;font-size: 14px;&quot;&gt;(диаграмма изменения состояний объекта и при каких условиях происходят эти изменения)&lt;/font&gt;&lt;/li&gt;&lt;/ul&gt;&lt;div style=&quot;font-size: 17px;&quot;&gt;2.Структурные:&lt;/div&gt;&lt;div style=&quot;&quot;&gt;&lt;ul style=&quot;&quot;&gt;&lt;li style=&quot;&quot;&gt;class diagramm&lt;font style=&quot;font-size: 14px;&quot;&gt;(иллюстрация того какая структура класса должна получиться)&lt;/font&gt;&lt;/li&gt;&lt;li style=&quot;&quot;&gt;&lt;span style=&quot;font-size: 17px;&quot;&gt;components diagramm&lt;/span&gt;&lt;font style=&quot;font-size: 14px;&quot;&gt;(описывает модули программного объекта, как происходит общение и так далее)&lt;/font&gt;&lt;/li&gt;&lt;li style=&quot;&quot;&gt;&lt;span style=&quot;font-size: 17px;&quot;&gt;deploy diagramm&lt;/span&gt;&lt;font style=&quot;font-size: 14px;&quot;&gt;(инструкция для системного админа что нужно сделать для того что бы все работало)&lt;/font&gt;&lt;span style=&quot;font-size: 17px; white-space: pre;&quot;&gt;&#x9;&lt;/span&gt;&lt;/li&gt;&lt;/ul&gt;&lt;div style=&quot;font-size: 17px;&quot;&gt;3.Структурные:&lt;/div&gt;&lt;/div&gt;&lt;div style=&quot;font-size: 17px;&quot;&gt;&lt;ul&gt;&lt;li&gt;&lt;br&gt;&lt;/li&gt;&lt;/ul&gt;&lt;/div&gt;&lt;br&gt;&lt;/font&gt;" style="text;html=1;align=left;verticalAlign=top;whiteSpace=wrap;rounded=1;strokeWidth=10;fillColor=#325877;strokeColor=#ffffff;fontSize=17;spacingLeft=15;spacingRight=15;glass=0;shadow=0;labelBackgroundColor=none;fontColor=#FFFFFF;" vertex="1" parent="1">
          <mxGeometry x="10" y="130" width="590" height="652" as="geometry" />
        </mxCell>
        <mxCell id="WUIFCC4ORFOG9mMlAvA7-35" value="&lt;font style=&quot;font-size: 17px;&quot;&gt;парта&lt;/font&gt;" style="shape=umlFrame;whiteSpace=wrap;html=1;pointerEvents=0;strokeColor=#FFFFFF;fontColor=#FFFFFF;fillColor=#182E3E;strokeWidth=3;width=80;height=40;" vertex="1" parent="1">
          <mxGeometry x="280" y="1040" width="390" height="495" as="geometry" />
        </mxCell>
        <mxCell id="WUIFCC4ORFOG9mMlAvA7-46" style="rounded=0;orthogonalLoop=1;jettySize=auto;html=1;exitX=0.5;exitY=0.5;exitDx=0;exitDy=0;exitPerimeter=0;strokeColor=#000000;endArrow=block;endFill=1;strokeWidth=2;" edge="1" parent="1" source="WUIFCC4ORFOG9mMlAvA7-36" target="WUIFCC4ORFOG9mMlAvA7-40">
          <mxGeometry relative="1" as="geometry" />
        </mxCell>
        <mxCell id="WUIFCC4ORFOG9mMlAvA7-48" style="rounded=0;orthogonalLoop=1;jettySize=auto;html=1;exitX=0.5;exitY=0.5;exitDx=0;exitDy=0;exitPerimeter=0;entryX=0;entryY=0.5;entryDx=0;entryDy=0;strokeColor=#000000;endArrow=block;endFill=1;strokeWidth=2;" edge="1" parent="1" source="WUIFCC4ORFOG9mMlAvA7-36" target="WUIFCC4ORFOG9mMlAvA7-43">
          <mxGeometry relative="1" as="geometry" />
        </mxCell>
        <mxCell id="WUIFCC4ORFOG9mMlAvA7-67" style="rounded=0;orthogonalLoop=1;jettySize=auto;html=1;exitX=0.5;exitY=0.5;exitDx=0;exitDy=0;exitPerimeter=0;entryX=0;entryY=0.5;entryDx=0;entryDy=0;strokeColor=#000000;strokeWidth=2;" edge="1" parent="1" source="WUIFCC4ORFOG9mMlAvA7-36" target="WUIFCC4ORFOG9mMlAvA7-56">
          <mxGeometry relative="1" as="geometry" />
        </mxCell>
        <mxCell id="WUIFCC4ORFOG9mMlAvA7-36" value="&lt;font style=&quot;font-size: 14px;&quot;&gt;ученик&lt;/font&gt;" style="shape=umlActor;verticalLabelPosition=bottom;verticalAlign=top;html=1;strokeColor=#000000;fontColor=#FFFFFF;fillColor=#ffffff;strokeWidth=2;" vertex="1" parent="1">
          <mxGeometry x="120" y="1135" width="50" height="100" as="geometry" />
        </mxCell>
        <mxCell id="WUIFCC4ORFOG9mMlAvA7-37" value="serever" style="shape=xor;whiteSpace=wrap;html=1;strokeColor=#FFFFFF;fontColor=#FFFFFF;fillColor=#182E3E;shadow=0;" vertex="1" parent="1">
          <mxGeometry x="1010" y="1135" width="110" height="120" as="geometry" />
        </mxCell>
        <mxCell id="WUIFCC4ORFOG9mMlAvA7-39" value="&lt;font style=&quot;font-size: 14px;&quot;&gt;рисовать на парте&lt;/font&gt;" style="ellipse;whiteSpace=wrap;html=1;strokeColor=#FFFFFF;fontColor=#FFFFFF;fillColor=#182E3E;" vertex="1" parent="1">
          <mxGeometry x="307.5" y="1095" width="135" height="60" as="geometry" />
        </mxCell>
        <mxCell id="WUIFCC4ORFOG9mMlAvA7-40" value="&lt;font style=&quot;font-size: 14px;&quot;&gt;положить вещи&lt;/font&gt;" style="ellipse;whiteSpace=wrap;html=1;strokeColor=#FFFFFF;fontColor=#FFFFFF;fillColor=#182E3E;" vertex="1" parent="1">
          <mxGeometry x="312.5" y="1165" width="130" height="60" as="geometry" />
        </mxCell>
        <mxCell id="WUIFCC4ORFOG9mMlAvA7-42" value="&lt;font style=&quot;font-size: 14px;&quot;&gt;ломать&lt;/font&gt;" style="ellipse;whiteSpace=wrap;html=1;strokeColor=#FFFFFF;fontColor=#FFFFFF;fillColor=#182E3E;" vertex="1" parent="1">
          <mxGeometry x="520" y="1315" width="130" height="60" as="geometry" />
        </mxCell>
        <mxCell id="WUIFCC4ORFOG9mMlAvA7-43" value="&lt;font style=&quot;font-size: 14px;&quot;&gt;спать&lt;/font&gt;" style="ellipse;whiteSpace=wrap;html=1;strokeColor=#FFFFFF;fontColor=#FFFFFF;fillColor=#182E3E;" vertex="1" parent="1">
          <mxGeometry x="312.5" y="1240" width="130" height="60" as="geometry" />
        </mxCell>
        <mxCell id="WUIFCC4ORFOG9mMlAvA7-45" style="rounded=0;orthogonalLoop=1;jettySize=auto;html=1;exitX=0.5;exitY=0.5;exitDx=0;exitDy=0;exitPerimeter=0;entryX=0.006;entryY=0.639;entryDx=0;entryDy=0;entryPerimeter=0;strokeColor=#000000;endArrow=block;endFill=1;strokeWidth=2;" edge="1" parent="1" source="WUIFCC4ORFOG9mMlAvA7-36" target="WUIFCC4ORFOG9mMlAvA7-39">
          <mxGeometry relative="1" as="geometry" />
        </mxCell>
        <mxCell id="WUIFCC4ORFOG9mMlAvA7-51" style="rounded=0;orthogonalLoop=1;jettySize=auto;html=1;exitX=0.5;exitY=0.5;exitDx=0;exitDy=0;exitPerimeter=0;entryX=0;entryY=0.5;entryDx=0;entryDy=0;strokeColor=#000000;endArrow=block;endFill=1;strokeWidth=2;" edge="1" parent="1" source="WUIFCC4ORFOG9mMlAvA7-49" target="WUIFCC4ORFOG9mMlAvA7-40">
          <mxGeometry relative="1" as="geometry" />
        </mxCell>
        <mxCell id="WUIFCC4ORFOG9mMlAvA7-66" style="rounded=0;orthogonalLoop=1;jettySize=auto;html=1;exitX=0.5;exitY=0.5;exitDx=0;exitDy=0;exitPerimeter=0;strokeColor=#000000;strokeWidth=2;" edge="1" parent="1" source="WUIFCC4ORFOG9mMlAvA7-49">
          <mxGeometry relative="1" as="geometry">
            <mxPoint x="310" y="1400" as="targetPoint" />
          </mxGeometry>
        </mxCell>
        <mxCell id="WUIFCC4ORFOG9mMlAvA7-49" value="&lt;font style=&quot;font-size: 14px;&quot;&gt;учитель&lt;/font&gt;" style="shape=umlActor;verticalLabelPosition=bottom;verticalAlign=top;html=1;strokeColor=#000000;fontColor=#FFFFFF;fillColor=#ffffff;strokeWidth=2;" vertex="1" parent="1">
          <mxGeometry x="120" y="1305" width="50" height="100" as="geometry" />
        </mxCell>
        <mxCell id="WUIFCC4ORFOG9mMlAvA7-52" value="&lt;font style=&quot;font-size: 14px;&quot;&gt;облакотиться&lt;/font&gt;" style="ellipse;whiteSpace=wrap;html=1;strokeColor=#FFFFFF;fontColor=#FFFFFF;fillColor=#182E3E;" vertex="1" parent="1">
          <mxGeometry x="520" y="1390" width="130" height="60" as="geometry" />
        </mxCell>
        <mxCell id="WUIFCC4ORFOG9mMlAvA7-54" value="&lt;font style=&quot;font-size: 14px;&quot;&gt;бить линейкой&lt;/font&gt;" style="ellipse;whiteSpace=wrap;html=1;strokeColor=#FFFFFF;fontColor=#FFFFFF;fillColor=#182E3E;" vertex="1" parent="1">
          <mxGeometry x="520" y="1460" width="130" height="60" as="geometry" />
        </mxCell>
        <mxCell id="WUIFCC4ORFOG9mMlAvA7-57" style="rounded=0;orthogonalLoop=1;jettySize=auto;html=1;exitX=1;exitY=0.5;exitDx=0;exitDy=0;entryX=0;entryY=0.5;entryDx=0;entryDy=0;strokeColor=#000000;strokeWidth=2;" edge="1" parent="1" source="WUIFCC4ORFOG9mMlAvA7-56" target="WUIFCC4ORFOG9mMlAvA7-42">
          <mxGeometry relative="1" as="geometry" />
        </mxCell>
        <mxCell id="WUIFCC4ORFOG9mMlAvA7-58" style="rounded=0;orthogonalLoop=1;jettySize=auto;html=1;entryX=0;entryY=0.5;entryDx=0;entryDy=0;strokeColor=#000000;strokeWidth=2;" edge="1" parent="1" source="WUIFCC4ORFOG9mMlAvA7-56" target="WUIFCC4ORFOG9mMlAvA7-52">
          <mxGeometry relative="1" as="geometry" />
        </mxCell>
        <mxCell id="WUIFCC4ORFOG9mMlAvA7-61" style="rounded=0;orthogonalLoop=1;jettySize=auto;html=1;entryX=0;entryY=0.5;entryDx=0;entryDy=0;strokeColor=#000000;exitX=1.017;exitY=0.589;exitDx=0;exitDy=0;exitPerimeter=0;strokeWidth=2;" edge="1" parent="1" source="WUIFCC4ORFOG9mMlAvA7-56" target="WUIFCC4ORFOG9mMlAvA7-54">
          <mxGeometry relative="1" as="geometry" />
        </mxCell>
        <mxCell id="WUIFCC4ORFOG9mMlAvA7-56" value="&lt;font style=&quot;font-size: 14px;&quot;&gt;физические воздействия&lt;/font&gt;" style="ellipse;whiteSpace=wrap;html=1;strokeColor=#FFFFFF;fontColor=#FFFFFF;fillColor=#182E3E;" vertex="1" parent="1">
          <mxGeometry x="312.5" y="1375" width="130" height="60" as="geometry" />
        </mxCell>
        <mxCell id="WUIFCC4ORFOG9mMlAvA7-63" value="&lt;font style=&quot;font-size: 14px;&quot;&gt;завуч&lt;/font&gt;" style="shape=umlActor;verticalLabelPosition=bottom;verticalAlign=top;html=1;strokeColor=#000000;fontColor=#FFFFFF;fillColor=#ffffff;strokeWidth=2;" vertex="1" parent="1">
          <mxGeometry x="740" y="1140" width="50" height="100" as="geometry" />
        </mxCell>
        <mxCell id="WUIFCC4ORFOG9mMlAvA7-64" style="rounded=0;orthogonalLoop=1;jettySize=auto;html=1;entryX=0.5;entryY=0.5;entryDx=0;entryDy=0;entryPerimeter=0;strokeColor=#000000;strokeWidth=2;" edge="1" parent="1" source="WUIFCC4ORFOG9mMlAvA7-40" target="WUIFCC4ORFOG9mMlAvA7-63">
          <mxGeometry relative="1" as="geometry" />
        </mxCell>
        <mxCell id="WUIFCC4ORFOG9mMlAvA7-65" style="rounded=0;orthogonalLoop=1;jettySize=auto;html=1;entryX=0.493;entryY=0.553;entryDx=0;entryDy=0;entryPerimeter=0;strokeColor=#000000;exitX=1;exitY=0.5;exitDx=0;exitDy=0;strokeWidth=2;" edge="1" parent="1" source="WUIFCC4ORFOG9mMlAvA7-42" target="WUIFCC4ORFOG9mMlAvA7-63">
          <mxGeometry relative="1" as="geometry" />
        </mxCell>
        <mxCell id="WUIFCC4ORFOG9mMlAvA7-72" style="edgeStyle=orthogonalEdgeStyle;rounded=0;orthogonalLoop=1;jettySize=auto;html=1;exitX=0.5;exitY=0.5;exitDx=0;exitDy=0;exitPerimeter=0;strokeColor=#23445D;" edge="1" parent="1" source="WUIFCC4ORFOG9mMlAvA7-68">
          <mxGeometry relative="1" as="geometry">
            <mxPoint x="145.33333333333326" y="2010" as="targetPoint" />
          </mxGeometry>
        </mxCell>
        <mxCell id="WUIFCC4ORFOG9mMlAvA7-68" value="&lt;font style=&quot;font-size: 14px;&quot;&gt;ученик&lt;/font&gt;" style="shape=umlActor;verticalLabelPosition=bottom;verticalAlign=top;html=1;strokeColor=#000000;fontColor=#FFFFFF;fillColor=#ffffff;strokeWidth=2;" vertex="1" parent="1">
          <mxGeometry x="120" y="1770" width="50" height="100" as="geometry" />
        </mxCell>
        <mxCell id="WUIFCC4ORFOG9mMlAvA7-70" value="&lt;font style=&quot;font-size: 27px;&quot;&gt;парта&lt;/font&gt;" style="html=1;whiteSpace=wrap;strokeColor=#FFFFFF;fontColor=#FFFFFF;fillColor=#182E3E;" vertex="1" parent="1">
          <mxGeometry x="280" y="1760" width="190" height="80" as="geometry" />
        </mxCell>
        <mxCell id="WUIFCC4ORFOG9mMlAvA7-71" value="&lt;font style=&quot;font-size: 14px;&quot;&gt;завуч&lt;/font&gt;" style="shape=umlActor;verticalLabelPosition=bottom;verticalAlign=top;html=1;strokeColor=#000000;fontColor=#FFFFFF;fillColor=#ffffff;strokeWidth=2;" vertex="1" parent="1">
          <mxGeometry x="740" y="1770" width="50" height="100" as="geometry" />
        </mxCell>
        <mxCell id="WUIFCC4ORFOG9mMlAvA7-78" value="&lt;font style=&quot;font-size: 9px;&quot;&gt;парта есть в классе&lt;/font&gt;" style="edgeStyle=orthogonalEdgeStyle;rounded=0;orthogonalLoop=1;jettySize=auto;html=1;curved=0;strokeColor=#000000;strokeWidth=2;" edge="1" parent="1" source="WUIFCC4ORFOG9mMlAvA7-74" target="WUIFCC4ORFOG9mMlAvA7-77">
          <mxGeometry y="15" relative="1" as="geometry">
            <mxPoint as="offset" />
          </mxGeometry>
        </mxCell>
        <mxCell id="WUIFCC4ORFOG9mMlAvA7-84" style="rounded=0;orthogonalLoop=1;jettySize=auto;html=1;strokeColor=#000000;strokeWidth=2;" edge="1" parent="1" source="WUIFCC4ORFOG9mMlAvA7-74" target="WUIFCC4ORFOG9mMlAvA7-82">
          <mxGeometry relative="1" as="geometry">
            <mxPoint x="145" y="2250" as="targetPoint" />
          </mxGeometry>
        </mxCell>
        <mxCell id="WUIFCC4ORFOG9mMlAvA7-74" value="определить возможность поспать на парте" style="points=[[0,0,0,0,5],[0,1,0,0,-5],[1,0,0,0,5],[1,1,0,0,-5]];perimeter=orthogonalPerimeter;outlineConnect=0;targetShapes=umlLifeline;portConstraint=eastwest;newEdgeStyle={&quot;curved&quot;:0,&quot;rounded&quot;:0};strokeColor=#FFFFFF;fontColor=#FFFFFF;fillColor=#182E3E;align=center;verticalAlign=middle;html=1;whiteSpace=wrap;rotation=0;" vertex="1" parent="1">
          <mxGeometry x="110" y="2010" width="70" height="170" as="geometry" />
        </mxCell>
        <mxCell id="WUIFCC4ORFOG9mMlAvA7-80" value="&lt;font style=&quot;font-size: 9px;&quot;&gt;завуч получил запрос&lt;br&gt;на проведение сна&lt;/font&gt;" style="edgeStyle=orthogonalEdgeStyle;rounded=0;orthogonalLoop=1;jettySize=auto;html=1;curved=0;strokeColor=#000000;strokeWidth=2;" edge="1" parent="1" source="WUIFCC4ORFOG9mMlAvA7-77" target="WUIFCC4ORFOG9mMlAvA7-79">
          <mxGeometry y="25" relative="1" as="geometry">
            <mxPoint as="offset" />
          </mxGeometry>
        </mxCell>
        <mxCell id="WUIFCC4ORFOG9mMlAvA7-90" style="edgeStyle=orthogonalEdgeStyle;rounded=0;orthogonalLoop=1;jettySize=auto;html=1;curved=0;strokeColor=#000000;strokeWidth=2;" edge="1" parent="1" source="WUIFCC4ORFOG9mMlAvA7-77" target="WUIFCC4ORFOG9mMlAvA7-74">
          <mxGeometry relative="1" as="geometry">
            <Array as="points">
              <mxPoint x="230" y="2180" />
              <mxPoint x="230" y="2180" />
            </Array>
          </mxGeometry>
        </mxCell>
        <mxCell id="WUIFCC4ORFOG9mMlAvA7-77" value="" style="points=[[0,0,0,0,5],[0,1,0,0,-5],[1,0,0,0,5],[1,1,0,0,-5]];perimeter=orthogonalPerimeter;outlineConnect=0;targetShapes=umlLifeline;portConstraint=eastwest;newEdgeStyle={&quot;curved&quot;:0,&quot;rounded&quot;:0};strokeColor=#FFFFFF;fontColor=#FFFFFF;fillColor=#182E3E;align=center;verticalAlign=middle;html=1;whiteSpace=wrap;rotation=0;" vertex="1" parent="1">
          <mxGeometry x="280" y="2010" width="70" height="170" as="geometry" />
        </mxCell>
        <mxCell id="WUIFCC4ORFOG9mMlAvA7-79" value="" style="points=[[0,0,0,0,5],[0,1,0,0,-5],[1,0,0,0,5],[1,1,0,0,-5]];perimeter=orthogonalPerimeter;outlineConnect=0;targetShapes=umlLifeline;portConstraint=eastwest;newEdgeStyle={&quot;curved&quot;:0,&quot;rounded&quot;:0};strokeColor=#FFFFFF;fontColor=#FFFFFF;fillColor=#182E3E;align=center;verticalAlign=middle;html=1;whiteSpace=wrap;rotation=0;" vertex="1" parent="1">
          <mxGeometry x="470" y="2010" width="70" height="170" as="geometry" />
        </mxCell>
        <mxCell id="WUIFCC4ORFOG9mMlAvA7-81" value="&lt;font style=&quot;font-size: 9px;&quot;&gt;завуч одобрил сон&lt;/font&gt;" style="edgeStyle=orthogonalEdgeStyle;rounded=0;orthogonalLoop=1;jettySize=auto;html=1;curved=0;entryX=1;entryY=1;entryDx=0;entryDy=-5;entryPerimeter=0;strokeColor=#000000;exitX=0;exitY=1;exitDx=0;exitDy=-5;exitPerimeter=0;strokeWidth=2;" edge="1" parent="1" source="WUIFCC4ORFOG9mMlAvA7-79" target="WUIFCC4ORFOG9mMlAvA7-77">
          <mxGeometry y="-15" relative="1" as="geometry">
            <mxPoint as="offset" />
          </mxGeometry>
        </mxCell>
        <mxCell id="WUIFCC4ORFOG9mMlAvA7-87" style="edgeStyle=orthogonalEdgeStyle;rounded=0;orthogonalLoop=1;jettySize=auto;html=1;curved=0;strokeColor=#000000;strokeWidth=2;" edge="1" parent="1" source="WUIFCC4ORFOG9mMlAvA7-82" target="WUIFCC4ORFOG9mMlAvA7-85">
          <mxGeometry relative="1" as="geometry">
            <Array as="points">
              <mxPoint x="220" y="2260" />
              <mxPoint x="220" y="2260" />
            </Array>
          </mxGeometry>
        </mxCell>
        <mxCell id="WUIFCC4ORFOG9mMlAvA7-92" style="rounded=0;orthogonalLoop=1;jettySize=auto;html=1;strokeColor=#23445D;" edge="1" parent="1" source="WUIFCC4ORFOG9mMlAvA7-82">
          <mxGeometry relative="1" as="geometry">
            <mxPoint x="145" y="2480" as="targetPoint" />
          </mxGeometry>
        </mxCell>
        <mxCell id="WUIFCC4ORFOG9mMlAvA7-82" value="спать" style="points=[[0,0,0,0,5],[0,1,0,0,-5],[1,0,0,0,5],[1,1,0,0,-5]];perimeter=orthogonalPerimeter;outlineConnect=0;targetShapes=umlLifeline;portConstraint=eastwest;newEdgeStyle={&quot;curved&quot;:0,&quot;rounded&quot;:0};strokeColor=#FFFFFF;fontColor=#FFFFFF;fillColor=#182E3E;align=center;verticalAlign=middle;html=1;whiteSpace=wrap;rotation=0;" vertex="1" parent="1">
          <mxGeometry x="110" y="2260" width="70" height="170" as="geometry" />
        </mxCell>
        <mxCell id="WUIFCC4ORFOG9mMlAvA7-89" value="&lt;font style=&quot;font-size: 9px;&quot;&gt;проснулся&lt;/font&gt;" style="edgeStyle=orthogonalEdgeStyle;rounded=0;orthogonalLoop=1;jettySize=auto;html=1;curved=0;strokeColor=#000000;strokeWidth=2;" edge="1" parent="1" source="WUIFCC4ORFOG9mMlAvA7-85" target="WUIFCC4ORFOG9mMlAvA7-82">
          <mxGeometry y="-20" relative="1" as="geometry">
            <Array as="points">
              <mxPoint x="220" y="2430" />
              <mxPoint x="220" y="2430" />
            </Array>
            <mxPoint as="offset" />
          </mxGeometry>
        </mxCell>
        <mxCell id="WUIFCC4ORFOG9mMlAvA7-85" value="" style="points=[[0,0,0,0,5],[0,1,0,0,-5],[1,0,0,0,5],[1,1,0,0,-5]];perimeter=orthogonalPerimeter;outlineConnect=0;targetShapes=umlLifeline;portConstraint=eastwest;newEdgeStyle={&quot;curved&quot;:0,&quot;rounded&quot;:0};strokeColor=#FFFFFF;fontColor=#FFFFFF;fillColor=#182E3E;align=center;verticalAlign=middle;html=1;whiteSpace=wrap;rotation=0;" vertex="1" parent="1">
          <mxGeometry x="280" y="2260" width="70" height="170" as="geometry" />
        </mxCell>
        <mxCell id="WUIFCC4ORFOG9mMlAvA7-91" value="" style="shape=umlDestroy;whiteSpace=wrap;html=1;strokeWidth=3;targetShapes=umlLifeline;strokeColor=#FFFFFF;fontColor=#FFFFFF;fillColor=#182E3E;" vertex="1" parent="1">
          <mxGeometry x="130" y="2490" width="30" height="30" as="geometry" />
        </mxCell>
      </root>
    </mxGraphModel>
  </diagram>
</mxfile>
